<svg xmlns="http://www.w3.org/2000/svg" width="172.469" height="139.181" viewBox="0 0 172.469 139.181"><defs><style>.a{fill:#fff;opacity:0.1;}</style></defs><g transform="translate(-203.031 -24)"><path class="a" d="M-41.66-1047.819h0a20.4,20.4,0,0,1-10.248-2.685,30.994,30.994,0,0,1-8.355-7.2c-5.107-6.026-9.451-14.2-14.049-22.864l0-.009c-1.236-2.327-2.514-4.734-3.818-7.118-10.557-19.294-24.2-39.879-52.558-39.879a65.368,65.368,0,0,0-7.334.428,90.312,90.312,0,0,1-10.126.593,66.777,66.777,0,0,1-19-2.6A52.815,52.815,0,0,1-181.736-1136a57.093,57.093,0,0,1-18.24-20.777,82.512,82.512,0,0,1-7.541-20.778A69.312,69.312,0,0,1-209-1187H-36.531v138.638A25.7,25.7,0,0,1-41.66-1047.819Z" transform="translate(412.031 1211)"/><path class="a" d="M-36.587-1075.9a29.77,29.77,0,0,1-12.056-2.367,31.043,31.043,0,0,1-9.27-6.324c-5.478-5.277-9.748-12.361-14.268-19.861-.878-1.456-1.785-2.962-2.7-4.455-10.266-16.7-22.7-33.007-51.514-33.007-2.449,0-5.021.12-7.644.356-3.664.33-7.271.5-10.722.5h-.011c-12.982,0-24.437-2.362-34.046-7.02a55.507,55.507,0,0,1-19.412-15.45,57.382,57.382,0,0,1-8.736-15.451A41.636,41.636,0,0,1-209-1186H-36.531v110.1h-.056Z" transform="translate(412.031 1210)"/></g></svg>