<svg xmlns="http://www.w3.org/2000/svg" width="24.314" height="24.309" viewBox="0 0 24.314 24.309"><defs><style>.a{fill:#5aa469;}</style></defs><path class="a" d="M16.322,11.3l2.125-2.125a4.644,4.644,0,0,0,5.848-4.888,1.389,1.389,0,0,0-2.365-.863L20.737,4.614a.69.69,0,0,1-1.18-.477.741.741,0,0,1,.214-.529l1.173-1.173A1.389,1.389,0,0,0,20.081.07,4.638,4.638,0,0,0,15.2,5.914L14.186,6.925l-1.25-1.25h0a1.427,1.427,0,0,0-2.015,0L8.779,7.818l-2-2L7.825,4.768a.712.712,0,0,0,0-1.007L5.764,1.7a.7.7,0,0,0-.184-.133L2.946.243a.713.713,0,0,0-.823.133l-1.8,1.8A.713.713,0,0,0,.191,3L1.522,5.628a.717.717,0,0,0,.132.181L3.714,7.871a.712.712,0,0,0,1.008,0L5.77,6.823l2,2L5.633,10.964a1.423,1.423,0,0,0,0,2.015l1.25,1.25L.677,20.435A2.3,2.3,0,0,0,3.93,23.688l7.322-7.322,6.83,6.831a3.585,3.585,0,1,0,5.069-5.069ZM4.218,6.36,2.741,4.883,1.695,2.818,2.766,1.746,4.838,2.788,6.314,4.264ZM19.881,1.483,18.764,2.6a2.174,2.174,0,0,0-.631,1.55,2.118,2.118,0,0,0,3.612,1.47l1.137-1.137a3.216,3.216,0,1,1-3-3ZM7.89,13.221l-1.25-1.25,5.289-5.29h0l1.25,1.25L7.89,13.221Zm-4.966,9.46a.876.876,0,0,1-1.239-1.239L15.829,7.3a4.663,4.663,0,0,0,1.24,1.24L2.923,22.681Zm19.221-.491a2.16,2.16,0,0,1-3.055,0l-6.83-6.831,1.024-1.024,6.688,6.688a.712.712,0,1,0,1.007-1.007l-6.688-6.688L15.315,12.3l6.829,6.831a2.162,2.162,0,0,1,0,3.055Z" transform="translate(0.001 -0.052)"/></svg>