<svg xmlns="http://www.w3.org/2000/svg" width="130.354" height="109.902" viewBox="0 0 130.354 109.902"><defs><style>.a{opacity:0.2;}.b{fill:#fdb827;}.c{fill:#ffd32a;}.d{fill:#5aa469;}</style></defs><g transform="translate(-123 -308)"><g class="a" transform="translate(125 269.209)"><path class="b" d="M124.114,88.884H113.943a49.8,49.8,0,0,0-99.535,0H4.24A4.245,4.245,0,0,0,0,93.123v4.2a4.245,4.245,0,0,0,4.24,4.24H5.98l3.2,17.177a36.683,36.683,0,0,0,36.049,29.949H64.983a1.88,1.88,0,1,0,0-3.76H45.233A32.922,32.922,0,0,1,12.88,118.055L9.805,101.567H116.99l-3.075,16.488a32.922,32.922,0,0,1-32.353,26.878H72.5a1.88,1.88,0,1,0,0,3.76h9.058a36.684,36.684,0,0,0,36.05-29.949l3.2-17.177h3.3a4.245,4.245,0,0,0,4.24-4.24v-4.2a4.245,4.245,0,0,0-4.24-4.24ZM31.771,57.889a46.036,46.036,0,0,1,78.41,30.995h-3.836a42.2,42.2,0,0,0-84.338,0H18.172a45.73,45.73,0,0,1,13.6-30.994Zm92.823,39.439a.48.48,0,0,1-.479.479H4.24a.48.48,0,0,1-.479-.479v-4.2a.48.48,0,0,1,.479-.479h41.1a1.88,1.88,0,0,0,0-3.76H25.772a38.444,38.444,0,0,1,76.811,0H52.862a1.88,1.88,0,1,0,0,3.76h71.252a.48.48,0,0,1,.479.479Z" transform="translate(0 0)"/><path class="c" d="M133.5,304.913a1.88,1.88,0,0,0-2.659,0l-2.478,2.478-2.478-2.478a1.88,1.88,0,0,0-2.659,2.659l2.478,2.478-2.478,2.478a1.88,1.88,0,1,0,2.659,2.659l2.478-2.478,2.478,2.478a1.88,1.88,0,1,0,2.659-2.659l-2.478-2.478,2.478-2.478a1.881,1.881,0,0,0,0-2.659Z" transform="translate(-91.919 -197.496)"/><path class="c" d="M207.256,304.913a1.88,1.88,0,0,0-2.659,0l-2.478,2.478-2.478-2.478a1.88,1.88,0,0,0-2.659,2.659l2.478,2.478-2.478,2.478a1.88,1.88,0,0,0,2.659,2.659l2.478-2.478,2.478,2.478a1.88,1.88,0,0,0,2.659-2.659l-2.478-2.478,2.478-2.478A1.88,1.88,0,0,0,207.256,304.913Z" transform="translate(-147.188 -197.496)"/><path class="c" d="M270.745,315.187a1.88,1.88,0,0,0,2.659,0l2.478-2.478,2.478,2.478a1.88,1.88,0,0,0,2.659-2.659l-2.478-2.478,2.478-2.478a1.88,1.88,0,1,0-2.659-2.659l-2.478,2.478-2.478-2.478a1.88,1.88,0,1,0-2.659,2.659l2.478,2.478-2.478,2.478A1.88,1.88,0,0,0,270.745,315.187Z" transform="translate(-202.459 -197.497)"/><path class="c" d="M344.506,315.187a1.88,1.88,0,0,0,2.659,0l2.478-2.478,2.478,2.478a1.88,1.88,0,0,0,2.659-2.659L352.3,310.05l2.478-2.478a1.88,1.88,0,1,0-2.659-2.659l-2.478,2.478-2.478-2.478a1.88,1.88,0,1,0-2.659,2.659l2.478,2.478-2.478,2.478A1.88,1.88,0,0,0,344.506,315.187Z" transform="translate(-257.729 -197.497)"/><path class="c" d="M133.5,370.066a1.88,1.88,0,0,0-2.659,0l-2.478,2.478-2.478-2.478a1.88,1.88,0,0,0-2.659,2.659L125.7,375.2l-2.478,2.478a1.88,1.88,0,1,0,2.659,2.659l2.478-2.478,2.478,2.478a1.88,1.88,0,1,0,2.659-2.659l-2.478-2.478,2.478-2.478a1.881,1.881,0,0,0,0-2.659Z" transform="translate(-91.919 -246.316)"/><path class="c" d="M207.256,370.066a1.88,1.88,0,0,0-2.659,0l-2.478,2.478-2.478-2.478a1.88,1.88,0,1,0-2.659,2.659l2.478,2.478-2.478,2.478a1.88,1.88,0,0,0,2.659,2.659l2.478-2.478,2.478,2.478a1.88,1.88,0,0,0,2.659-2.659l-2.478-2.478,2.478-2.478A1.881,1.881,0,0,0,207.256,370.066Z" transform="translate(-147.188 -246.316)"/><path class="c" d="M275.882,377.862l2.478,2.478a1.88,1.88,0,0,0,2.659-2.659l-2.478-2.478,2.478-2.478a1.88,1.88,0,0,0-2.659-2.659l-2.478,2.478-2.478-2.478a1.88,1.88,0,0,0-2.659,2.659l2.478,2.478-2.478,2.478a1.88,1.88,0,0,0,2.659,2.659Z" transform="translate(-202.46 -246.316)"/><path class="c" d="M344.506,380.339a1.88,1.88,0,0,0,2.659,0l2.478-2.478,2.478,2.478a1.88,1.88,0,1,0,2.659-2.659L352.3,375.2l2.478-2.478a1.88,1.88,0,0,0-2.659-2.659l-2.478,2.478-2.478-2.478a1.88,1.88,0,1,0-2.659,2.659l2.478,2.478-2.478,2.478A1.88,1.88,0,0,0,344.506,380.339Z" transform="translate(-257.729 -246.316)"/></g><g transform="translate(123 267.209)"><path class="d" d="M124.114,88.884H113.943a49.8,49.8,0,0,0-99.535,0H4.24A4.245,4.245,0,0,0,0,93.123v4.2a4.245,4.245,0,0,0,4.24,4.24H5.98l3.2,17.177a36.683,36.683,0,0,0,36.049,29.949H64.983a1.88,1.88,0,1,0,0-3.76H45.233A32.922,32.922,0,0,1,12.88,118.055L9.805,101.567H116.99l-3.075,16.488a32.922,32.922,0,0,1-32.353,26.878H72.5a1.88,1.88,0,1,0,0,3.76h9.058a36.684,36.684,0,0,0,36.05-29.949l3.2-17.177h3.3a4.245,4.245,0,0,0,4.24-4.24v-4.2a4.245,4.245,0,0,0-4.24-4.24ZM31.771,57.889a46.036,46.036,0,0,1,78.41,30.995h-3.836a42.2,42.2,0,0,0-84.338,0H18.172a45.73,45.73,0,0,1,13.6-30.994Zm92.823,39.439a.48.48,0,0,1-.479.479H4.24a.48.48,0,0,1-.479-.479v-4.2a.48.48,0,0,1,.479-.479h41.1a1.88,1.88,0,0,0,0-3.76H25.772a38.444,38.444,0,0,1,76.811,0H52.862a1.88,1.88,0,1,0,0,3.76h71.252a.48.48,0,0,1,.479.479Z" transform="translate(0 0)"/><path class="d" d="M133.5,304.913a1.88,1.88,0,0,0-2.659,0l-2.478,2.478-2.478-2.478a1.88,1.88,0,0,0-2.659,2.659l2.478,2.478-2.478,2.478a1.88,1.88,0,1,0,2.659,2.659l2.478-2.478,2.478,2.478a1.88,1.88,0,1,0,2.659-2.659l-2.478-2.478,2.478-2.478a1.881,1.881,0,0,0,0-2.659Z" transform="translate(-91.919 -197.496)"/><path class="d" d="M207.256,304.913a1.88,1.88,0,0,0-2.659,0l-2.478,2.478-2.478-2.478a1.88,1.88,0,0,0-2.659,2.659l2.478,2.478-2.478,2.478a1.88,1.88,0,0,0,2.659,2.659l2.478-2.478,2.478,2.478a1.88,1.88,0,0,0,2.659-2.659l-2.478-2.478,2.478-2.478A1.88,1.88,0,0,0,207.256,304.913Z" transform="translate(-147.188 -197.496)"/><path class="d" d="M270.745,315.187a1.88,1.88,0,0,0,2.659,0l2.478-2.478,2.478,2.478a1.88,1.88,0,0,0,2.659-2.659l-2.478-2.478,2.478-2.478a1.88,1.88,0,1,0-2.659-2.659l-2.478,2.478-2.478-2.478a1.88,1.88,0,1,0-2.659,2.659l2.478,2.478-2.478,2.478A1.88,1.88,0,0,0,270.745,315.187Z" transform="translate(-202.459 -197.497)"/><path class="d" d="M344.506,315.187a1.88,1.88,0,0,0,2.659,0l2.478-2.478,2.478,2.478a1.88,1.88,0,0,0,2.659-2.659L352.3,310.05l2.478-2.478a1.88,1.88,0,1,0-2.659-2.659l-2.478,2.478-2.478-2.478a1.88,1.88,0,1,0-2.659,2.659l2.478,2.478-2.478,2.478A1.88,1.88,0,0,0,344.506,315.187Z" transform="translate(-257.729 -197.497)"/><path class="d" d="M133.5,370.066a1.88,1.88,0,0,0-2.659,0l-2.478,2.478-2.478-2.478a1.88,1.88,0,0,0-2.659,2.659L125.7,375.2l-2.478,2.478a1.88,1.88,0,1,0,2.659,2.659l2.478-2.478,2.478,2.478a1.88,1.88,0,1,0,2.659-2.659l-2.478-2.478,2.478-2.478a1.881,1.881,0,0,0,0-2.659Z" transform="translate(-91.919 -246.316)"/><path class="d" d="M207.256,370.066a1.88,1.88,0,0,0-2.659,0l-2.478,2.478-2.478-2.478a1.88,1.88,0,1,0-2.659,2.659l2.478,2.478-2.478,2.478a1.88,1.88,0,0,0,2.659,2.659l2.478-2.478,2.478,2.478a1.88,1.88,0,0,0,2.659-2.659l-2.478-2.478,2.478-2.478A1.881,1.881,0,0,0,207.256,370.066Z" transform="translate(-147.188 -246.316)"/><path class="d" d="M275.882,377.862l2.478,2.478a1.88,1.88,0,0,0,2.659-2.659l-2.478-2.478,2.478-2.478a1.88,1.88,0,0,0-2.659-2.659l-2.478,2.478-2.478-2.478a1.88,1.88,0,0,0-2.659,2.659l2.478,2.478-2.478,2.478a1.88,1.88,0,0,0,2.659,2.659Z" transform="translate(-202.46 -246.316)"/><path class="d" d="M344.506,380.339a1.88,1.88,0,0,0,2.659,0l2.478-2.478,2.478,2.478a1.88,1.88,0,1,0,2.659-2.659L352.3,375.2l2.478-2.478a1.88,1.88,0,0,0-2.659-2.659l-2.478,2.478-2.478-2.478a1.88,1.88,0,1,0-2.659,2.659l2.478,2.478-2.478,2.478A1.88,1.88,0,0,0,344.506,380.339Z" transform="translate(-257.729 -246.316)"/></g></g></svg>