<svg xmlns="http://www.w3.org/2000/svg" width="18.324" height="23.392" viewBox="0 0 18.324 23.392">
  <g id="beranda" opacity="0.5">
    <path id="Path_86" data-name="Path 86" d="M129.8,8.2l-8.332-8a.737.737,0,0,0-1.019,0L116.5,3.953a.475.475,0,1,0,.655.689l3.8-3.61,8.12,7.792v2.058l-7.617-7.338a.736.736,0,0,0-1.02,0l-7.785,7.4V8.915l3.136-2.978a.475.475,0,0,0-.655-.689l-3.2,3.041a.741.741,0,0,0-.23.535v2.618a.737.737,0,0,0,1.019.682l1.843,10.44a.878.878,0,0,0,.876.828h.447a.475.475,0,0,0,0-.951h-.38l0-.009L113.561,11.4l6.894-6.557V9.465a3.118,3.118,0,0,0,0,6.181V17.41h-2.209a.824.824,0,0,0-.823.823v1.135a.824.824,0,0,0,.823.823h2.21c0,.006,0,.012,0,.018v2.23h-2.663a.475.475,0,1,0,0,.951h8.844a.878.878,0,0,0,.876-.836l1.535-10.475a.738.738,0,0,0,.982-.7V8.734A.741.741,0,0,0,129.8,8.2Zm-11.1,4.354a2.168,2.168,0,1,1,2.168,2.168A2.17,2.17,0,0,1,118.7,12.556Zm-.326,5.806h4.988v.88h-4.988Zm8.194,4.079h-5.162V20.21c0-.006,0-.012,0-.018h2.083a.824.824,0,0,0,.823-.823V18.234a.824.824,0,0,0-.823-.823h-2.083V15.626a3.118,3.118,0,0,0,0-6.142V4.811l6.787,6.539Z" transform="translate(-111.705 0.001)" fill="#fff"/>
  </g>
</svg>
