<svg xmlns="http://www.w3.org/2000/svg" width="23.188" height="17.759" viewBox="0 0 23.188 17.759"><defs><style>.a{fill:#5aa469;}</style></defs><g transform="translate(-0.778 -3)"><path class="a" d="M-1.421-.34a.756.756,0,0,1,0-1.081.756.756,0,0,1,1.081,0L15.847,14.766a.764.764,0,0,1-1.081,1.081Z" transform="translate(4.659 4.659)"/><path class="a" d="M202.256,127.709a5.927,5.927,0,0,0-8.172-5.487l7.73,7.73A5.9,5.9,0,0,0,202.256,127.709Z" transform="translate(-183.956 -115.337)"/><path class="a" d="M330.517,128.334a7.411,7.411,0,0,1-.819,3.4l.944.944c.367-.2,3.958-1.5,4.012-4.339s-4.053-4.814-7.032-5.895A7.449,7.449,0,0,1,330.517,128.334Z" transform="translate(-310.688 -115.962)"/><path class="a" d="M121.784,196.324a5.927,5.927,0,0,0,8.172,5.487l-7.73-7.73A5.9,5.9,0,0,0,121.784,196.324Z" transform="translate(-115.34 -183.953)"/><path class="a" d="M14.742,157.306a7.411,7.411,0,0,1,.819-3.4l-.944-.944c-.6.238-3.99,1.963-4.012,4.339s4.053,4.814,7.032,5.895A7.448,7.448,0,0,1,14.742,157.306Z" transform="translate(-9.827 -144.934)"/></g></svg>