<svg xmlns="http://www.w3.org/2000/svg" width="23.188" height="11.856" viewBox="0 0 23.188 11.856"><defs><style>.a{fill:#5aa469;}</style></defs><path class="a" d="M4.137,117.73a7.448,7.448,0,0,1,2.9-5.895C4.053,112.915,0,114.782,0,117.73s4.053,4.814,7.032,5.895A7.448,7.448,0,0,1,4.137,117.73Z" transform="translate(0 -111.801)"/><path class="a" d="M117.105,111.177a5.928,5.928,0,1,0,5.928,5.928A5.935,5.935,0,0,0,117.105,111.177Zm0,7.712a1.784,1.784,0,1,1,1.784-1.784A1.784,1.784,0,0,1,117.105,118.889Z" transform="translate(-105.511 -111.177)"/><path class="a" d="M317.014,111.835a7.448,7.448,0,0,1,0,11.789c2.979-1.08,7.032-2.947,7.032-5.895S319.993,112.915,317.014,111.835Z" transform="translate(-300.858 -111.801)"/></svg>