<svg xmlns="http://www.w3.org/2000/svg" width="34.5" height="34.5" viewBox="0 0 34.5 34.5"><defs><style>.a{fill:#5aa469;}.b{fill:#fff;}</style></defs><g transform="translate(-208 -268)"><path class="a" d="M17.25,0A17.25,17.25,0,1,1,0,17.25,17.25,17.25,0,0,1,17.25,0Z" transform="translate(208 268)"/><g transform="translate(217.495 277.772)"><g transform="translate(0 0)"><path class="b" d="M16.218,45.459a16.362,16.362,0,0,0-4.28-1.353l-.1-.432A2.478,2.478,0,0,0,9.413,41.75H7.047a2.48,2.48,0,0,0-2.423,1.924l-.1.432a16.212,16.212,0,0,0-4.28,1.353.454.454,0,0,0-.243.4v5.367a3.906,3.906,0,0,0,3.9,3.9.456.456,0,0,0,0-.911,2.994,2.994,0,0,1-2.99-2.99v-5.08a17.034,17.034,0,0,1,4.067-1.2.455.455,0,0,0,.365-.344l.169-.726a1.571,1.571,0,0,1,1.536-1.218H9.413a1.571,1.571,0,0,1,1.536,1.218l.169.726a.451.451,0,0,0,.365.344,17.2,17.2,0,0,1,4.067,1.2v5.08a2.994,2.994,0,0,1-2.99,2.99.456.456,0,0,0,0,.911,3.906,3.906,0,0,0,3.9-3.9V45.861A.448.448,0,0,0,16.218,45.459Z" transform="translate(0 -41.75)"/><path class="b" d="M31.088,85.628a.416.416,0,0,0,.142-.024c.479-.159.982-.3,1.5-.422a.454.454,0,1,0-.209-.884c-.537.128-1.067.277-1.573.442a.455.455,0,0,0-.29.574A.465.465,0,0,0,31.088,85.628Z" transform="translate(-29.596 -82.85)"/><path class="b" d="M93.745,135.05A5.247,5.247,0,1,0,98.99,140.3,5.25,5.25,0,0,0,93.745,135.05Zm0,9.582a4.335,4.335,0,1,1,4.334-4.337A4.339,4.339,0,0,1,93.745,144.632Z" transform="translate(-85.513 -131.901)"/></g></g></g></svg>