<svg xmlns="http://www.w3.org/2000/svg" width="90" height="90" viewBox="0 0 90 90"><defs><style>.a{fill:#fff;}.b{fill:#fdb827;}.c{fill:#5aa469;}</style></defs><g transform="translate(-143 -59)"><rect class="a" width="90" height="90" rx="45" transform="translate(143 59)"/><rect class="b" width="13" height="13" rx="6.5" transform="translate(150.5 130)"/><g transform="translate(165 85)"><path class="c" d="M45.55,55.644a1.206,1.206,0,0,0-.851-.76l-8.918-2.153q-1.595-.385-3.211-.674V50.507A9.619,9.619,0,0,0,22.963,40.9h-.3A9.593,9.593,0,0,0,17.7,42.278a.668.668,0,1,0,.691,1.144,8.256,8.256,0,0,1,4.271-1.186h.3a8.28,8.28,0,0,1,8.271,8.271v1.33a55.659,55.659,0,0,0-16.845,0v-1.33a8.244,8.244,0,0,1,2.2-5.618.668.668,0,1,0-.981-.908,9.577,9.577,0,0,0-2.556,6.526v1.551q-1.615.289-3.211.674L.924,54.884a1.208,1.208,0,0,0-.69,1.889L1.9,59.046A2.58,2.58,0,0,0,3.975,60.1H7.143l.115.315a32.29,32.29,0,0,0,13.524,16.5,2.048,2.048,0,1,0,4.06,0,32.29,32.29,0,0,0,13.524-16.5l.115-.315h3.168a2.58,2.58,0,0,0,2.072-1.05l1.669-2.273a1.205,1.205,0,0,0,.161-1.129ZM22.812,77.9a.712.712,0,1,1,.712-.712A.713.713,0,0,1,22.812,77.9ZM42.643,58.255a1.239,1.239,0,0,1-.995.5H28.158a.668.668,0,1,0,0,1.337h8.9A30.951,30.951,0,0,1,24.238,75.717a2.043,2.043,0,0,0-2.853,0A30.951,30.951,0,0,1,8.567,60.1H25.485a.668.668,0,1,0,0-1.337H3.975a1.239,1.239,0,0,1-.995-.5L1.426,56.138l8.73-2.108a54.164,54.164,0,0,1,25.312,0l8.73,2.108Z" transform="translate(0 -40.899)"/></g></g></svg>