<svg xmlns="http://www.w3.org/2000/svg" width="19.433" height="9.936" viewBox="0 0 19.433 9.936"><defs><style>.a{opacity:0.5;}.b{fill:#fff;}</style></defs><g class="a" transform="translate(0 0)"><path class="b" d="M3.467,116.775a6.242,6.242,0,0,1,2.426-4.94C3.4,112.74,0,114.3,0,116.775s3.4,4.035,5.893,4.94A6.242,6.242,0,0,1,3.467,116.775Z" transform="translate(0 -111.807)"/><path class="b" d="M116.145,111.177a4.968,4.968,0,1,0,4.968,4.968A4.974,4.974,0,0,0,116.145,111.177Zm0,6.463a1.495,1.495,0,1,1,1.495-1.495A1.495,1.495,0,0,1,116.145,117.64Z" transform="translate(-106.429 -111.177)"/><path class="b" d="M317.014,111.835a6.242,6.242,0,0,1,0,9.88c2.5-.905,5.893-2.47,5.893-4.94S319.511,112.74,317.014,111.835Z" transform="translate(-303.475 -111.807)"/></g></svg>