<svg xmlns="http://www.w3.org/2000/svg" width="19.433" height="14.883" viewBox="0 0 19.433 14.883"><defs><style>.a{opacity:0.5;}.b{fill:#fff;}</style></defs><g class="a"><path class="b" d="M-1.46-.554a.634.634,0,0,1,0-.906.634.634,0,0,1,.906,0L13.012,12.106a.641.641,0,0,1-.906.906Z" transform="translate(3.521 1.659)"/><path class="b" d="M200.932,126.749a4.967,4.967,0,0,0-6.848-4.6l6.478,6.478A4.941,4.941,0,0,0,200.932,126.749Z" transform="translate(-186.248 -118.895)"/><path class="b" d="M330.048,127.379a6.211,6.211,0,0,1-.686,2.845l.791.791c.308-.169,3.317-1.258,3.362-3.636s-3.4-4.035-5.893-4.94A6.242,6.242,0,0,1,330.048,127.379Z" transform="translate(-314.083 -119.525)"/><path class="b" d="M121.784,195.961a4.967,4.967,0,0,0,6.848,4.6l-6.478-6.478A4.941,4.941,0,0,0,121.784,195.961Z" transform="translate(-117.036 -188.107)"/><path class="b" d="M14.072,156.6a6.211,6.211,0,0,1,.686-2.845l-.791-.791c-.5.2-3.343,1.645-3.362,3.636s3.4,4.035,5.893,4.94A6.242,6.242,0,0,1,14.072,156.6Z" transform="translate(-10.605 -148.749)"/></g></svg>