<svg xmlns="http://www.w3.org/2000/svg" width="26.417" height="26.469" viewBox="0 0 26.417 26.469"><defs><style>.a{fill:#5aa469;}</style></defs><g transform="translate(0)"><path class="a" d="M157.167,219.351a.775.775,0,0,0,.775-.775V215.9a.775.775,0,1,0-1.551,0v2.675A.775.775,0,0,0,157.167,219.351Z" transform="translate(-148.333 -204.004)"/><path class="a" d="M26.531,12.563,20.337,8.987a.776.776,0,0,0-1.163.672v1.276h-2.8V.775A.776.776,0,0,0,15.6,0H1.276A.776.776,0,0,0,.5.775V25.694a.776.776,0,0,0,.775.775H15.6a.776.776,0,0,0,.775-.775V15.535h2.8v1.276a.776.776,0,0,0,1.163.672l6.194-3.576A.776.776,0,0,0,26.531,12.563ZM11.688,24.918H2.052V1.551h9.636Zm1.551,0V1.551h1.585V24.918Zm7.486-9.451V14.76a.775.775,0,0,0-.775-.775H16.375v-1.5h3.575a.775.775,0,0,0,.775-.775V11l3.868,2.233Z" transform="translate(-0.501)"/></g></svg>