<svg xmlns="http://www.w3.org/2000/svg" width="215" height="57.028" viewBox="0 0 215 57.028"><defs><style>.a,.b{fill:#fff;}.b{font-size:39px;font-family:Arciform, Arciform Sans;letter-spacing:0.01em;}</style></defs><g transform="translate(-84.5 -229.365)"><g transform="translate(177.501 230.365)"><path class="a" d="M19.386,120.592a3.3,3.3,0,0,0,.259-.427,8.538,8.538,0,0,0,.273-5.609,8.976,8.976,0,0,0-4.606-5.8,10.323,10.323,0,0,0-1.138-.5,1.362,1.362,0,1,0-.94,2.558,7.562,7.562,0,0,1,.836.364,6.73,6.73,0,0,1,3.409,6.784,12.977,12.977,0,0,0-3.292-2.657,1.362,1.362,0,1,0-1.333,2.377,10.453,10.453,0,0,1,2.847,2.364,5.946,5.946,0,0,1-3.024.465c-3.539-.4-6.43-4-8.219-10.2a28.137,28.137,0,0,1,4.334-.234,1.362,1.362,0,0,0,.081-2.724,30.84,30.84,0,0,0-6.394.512,1.362,1.362,0,0,0-1.05,1.661c1.1,4.478,2.7,7.929,4.763,10.257a9.734,9.734,0,0,0,6.181,3.439,8.576,8.576,0,0,0,4.546-.734c.114-.053.225-.108.335-.164A5.9,5.9,0,0,0,19.386,120.592Z" transform="translate(-3.391 -108.346)"/></g><text class="b" transform="translate(84.5 276.393)"><tspan x="0" y="0">cocoktanam</tspan></text><g transform="translate(201.241 233.025)"><path class="a" d="M31.8,121.392a7.564,7.564,0,0,0,4.027.643,8.739,8.739,0,0,0,5.583-3.182c1.859-2.154,3.306-5.346,4.3-9.488a1.286,1.286,0,0,0-.155-.975,1.231,1.231,0,0,0-.794-.561c-.292-.061-7.208-1.471-11.59.825a8.269,8.269,0,0,0-4.16,5.361,8.076,8.076,0,0,0,.246,5.188,3.391,3.391,0,0,0,.5.733A5.937,5.937,0,0,0,31.8,121.392ZM34.3,110.9a11.968,11.968,0,0,1,5.365-1.034,25.833,25.833,0,0,1,3.317.228c-1.616,5.736-4.227,9.072-7.424,9.439a5.231,5.231,0,0,1-2.5-.335,7.516,7.516,0,0,1,2.344-2.281,1.276,1.276,0,0,0,.471-1.716,1.215,1.215,0,0,0-1.675-.483,9.683,9.683,0,0,0-2.931,2.721A6.289,6.289,0,0,1,34.3,110.9Z" transform="translate(-28.714 -107.346)"/></g></g></svg>