<svg xmlns="http://www.w3.org/2000/svg" width="105" height="27.28" viewBox="0 0 105 27.28"><defs><style>.a,.b{fill:#5aa469;}.b{font-size:19px;font-family:Arciform, Arciform Sans;letter-spacing:0.01em;}</style></defs><g transform="translate(-130 -650.502)"><g transform="translate(175.579 650.502)"><path class="a" d="M9.4,113.241a1.466,1.466,0,0,0,.115-.19,3.8,3.8,0,0,0,.121-2.5,4,4,0,0,0-2.05-2.579,4.593,4.593,0,0,0-.506-.22.606.606,0,0,0-.418,1.138,3.363,3.363,0,0,1,.372.162,3,3,0,0,1,1.517,3.019,5.776,5.776,0,0,0-1.465-1.183.606.606,0,0,0-.593,1.058A4.652,4.652,0,0,1,7.761,113a2.646,2.646,0,0,1-1.346.207c-1.575-.177-2.862-1.781-3.658-4.541a12.519,12.519,0,0,1,1.929-.1.606.606,0,0,0,.036-1.212,13.724,13.724,0,0,0-2.845.228.606.606,0,0,0-.467.739,10.745,10.745,0,0,0,2.12,4.565,4.332,4.332,0,0,0,2.751,1.531,3.8,3.8,0,0,0,.426.024,3.838,3.838,0,0,0,1.6-.35c.051-.023.1-.048.149-.073A2.624,2.624,0,0,0,9.4,113.241Z" transform="translate(-1.391 -107.346)"/></g><text class="b" transform="translate(130 672.782)"><tspan x="0" y="0">cocoktanam</tspan></text><g transform="translate(186.034 652.13)"><path class="a" d="M30.089,113.6a3.366,3.366,0,0,0,1.792.286,3.889,3.889,0,0,0,2.485-1.416,10.045,10.045,0,0,0,1.914-4.223.572.572,0,0,0-.069-.434.548.548,0,0,0-.353-.25c-.13-.027-3.208-.655-5.158.367a3.68,3.68,0,0,0-1.851,2.386,3.594,3.594,0,0,0,.11,2.309,1.509,1.509,0,0,0,.222.326A2.642,2.642,0,0,0,30.089,113.6Zm1.11-4.67a5.327,5.327,0,0,1,2.388-.46,11.5,11.5,0,0,1,1.476.1c-.719,2.553-1.881,4.037-3.3,4.2a2.328,2.328,0,0,1-1.114-.149,3.345,3.345,0,0,1,1.043-1.015.568.568,0,0,0,.21-.764.541.541,0,0,0-.746-.215,4.309,4.309,0,0,0-1.3,1.211A2.8,2.8,0,0,1,31.2,108.927Z" transform="translate(-28.714 -107.346)"/></g></g></svg>