<svg id="menanamActive" xmlns="http://www.w3.org/2000/svg" width="15.356" height="23.392" viewBox="0 0 15.356 23.392">
  <path id="Path_87" data-name="Path 87" d="M102.961,8.165a4.436,4.436,0,0,0-1.745-1.285,4.435,4.435,0,0,0,1.3-1.736.776.776,0,0,0-.483-1.054,4.436,4.436,0,0,0-2.162-.15,4.436,4.436,0,0,0,.165-2.161.777.777,0,0,0-.973-.631,4.436,4.436,0,0,0-1.906,1.031A4.436,4.436,0,0,0,96.135.266a.777.777,0,0,0-1.16-.012,4.436,4.436,0,0,0-1.057,1.892,4.436,4.436,0,0,0-1.884-1.07.777.777,0,0,0-.986.611,4.436,4.436,0,0,0,.12,2.164A4.435,4.435,0,0,0,89,3.955.777.777,0,0,0,88.5,5,4.436,4.436,0,0,0,89.76,6.762,4.435,4.435,0,0,0,87.988,8.01a.777.777,0,0,0,.133,1.152,4.436,4.436,0,0,0,2.009.813,4.436,4.436,0,0,0-.827,2,.777.777,0,0,0,.729.9c.079,0,.166.006.261.006a4.261,4.261,0,0,0,1.871-.4,4.435,4.435,0,0,0,.374,2.135.777.777,0,0,0,1.1.371,4.654,4.654,0,0,0,1.427-1.223v5.118a5.329,5.329,0,0,0-.745-.562,2.4,2.4,0,0,0-.337-1.28,2.367,2.367,0,0,0-1.57-1.16,5.582,5.582,0,0,0-3,.5.654.654,0,0,0-.309.937,5.832,5.832,0,0,0,1.857,2.056,2.63,2.63,0,0,0,1.365.408,2.248,2.248,0,0,0,1.732-.816,4.558,4.558,0,0,1,1.008.9v3.166a.343.343,0,1,0,.687,0v-2.06a4.558,4.558,0,0,1,1.013-.91,2.248,2.248,0,0,0,1.731.816,2.63,2.63,0,0,0,1.365-.408,5.831,5.831,0,0,0,1.857-2.057.654.654,0,0,0-.309-.937,6,6,0,0,0-2.764-.542.343.343,0,1,0,.081.682,5.411,5.411,0,0,1,2.382.478c-.819,1.364-1.735,2.1-2.61,2.1a1.554,1.554,0,0,1-.259-.022,1.594,1.594,0,0,1-.863-.452,5.958,5.958,0,0,1,1.1-.394.343.343,0,0,0-.169-.665,6.746,6.746,0,0,0-1.093.377,1.954,1.954,0,0,1,.556-.989.343.343,0,0,0-.466-.5,2.592,2.592,0,0,0-.677,1.05,2.157,2.157,0,0,0-.127.822,5.333,5.333,0,0,0-.751.567V13.753a4.629,4.629,0,0,0,1.421,1.281.776.776,0,0,0,1.106-.348,4.436,4.436,0,0,0,.418-2.126,4.245,4.245,0,0,0,1.9.434h.011a.936.936,0,0,0,.92-1.105,4.244,4.244,0,0,0-.751-1.8,4.436,4.436,0,0,0,2.026-.772.777.777,0,0,0,.157-1.149ZM92.579,19.085c-.951.161-1.969-.576-2.869-2.075a5.007,5.007,0,0,1,2.558-.449A1.8,1.8,0,0,1,93.6,17.95a6.751,6.751,0,0,0-1.094-.377.343.343,0,0,0-.169.665,5.964,5.964,0,0,1,1.1.394,1.594,1.594,0,0,1-.863.453Zm3.072-7.379c-.059,0-.117,0-.175,0a3.98,3.98,0,1,1,.175,0Zm6.176-6.961a.09.09,0,0,1,.056.123,3.329,3.329,0,0,1-1.473,1.7,2.124,2.124,0,0,1-.383.132,4.611,4.611,0,0,0-.8-1.741,2.121,2.121,0,0,1,.349-.2,3.329,3.329,0,0,1,2.248-.008ZM99.24,1.81a.09.09,0,0,1,.113.073,3.329,3.329,0,0,1-.334,2.223,2.125,2.125,0,0,1-.254.317c-.044-.044-.09-.088-.136-.13a4.662,4.662,0,0,0-1.469-.914,2.122,2.122,0,0,1,.184-.359A3.329,3.329,0,0,1,99.24,1.81ZM95.483.716a.09.09,0,0,1,.135,0,3.329,3.329,0,0,1,.909,2.056,2.118,2.118,0,0,1-.044.4,4.723,4.723,0,0,0-1.916-.019,2.122,2.122,0,0,1-.036-.4A3.329,3.329,0,0,1,95.483.716ZM91.724,1.8a.09.09,0,0,1,.115-.071,3.329,3.329,0,0,1,1.869,1.249,2.127,2.127,0,0,1,.177.363,4.627,4.627,0,0,0-1.626,1.01,2.127,2.127,0,0,1-.247-.322A3.329,3.329,0,0,1,91.724,1.8ZM89.133,4.737a.09.09,0,0,1,.059-.122,3.329,3.329,0,0,1,2.248.054,2.126,2.126,0,0,1,.346.212A4.623,4.623,0,0,0,90.95,6.6a2.125,2.125,0,0,1-.379-.139A3.329,3.329,0,0,1,89.133,4.737Zm-.655,3.8a.088.088,0,0,1,.022-.07,3.329,3.329,0,0,1,1.927-1.158,2.118,2.118,0,0,1,.405-.006,4.737,4.737,0,0,0-.015.632,4.652,4.652,0,0,0,.234,1.271,2.117,2.117,0,0,1-.4.086,3.33,3.33,0,0,1-2.14-.69A.088.088,0,0,1,88.478,8.538Zm1.586,3.657a.09.09,0,0,1-.085-.1,3.329,3.329,0,0,1,1.007-2.01,2.121,2.121,0,0,1,.34-.223,4.689,4.689,0,0,0,1.2,1.488,2.126,2.126,0,0,1-.29.287A3.328,3.328,0,0,1,90.065,12.195ZM93.3,14.4a.09.09,0,0,1-.128-.043,3.329,3.329,0,0,1-.226-2.237,2.124,2.124,0,0,1,.168-.371,4.636,4.636,0,0,0,1.812.614,2.127,2.127,0,0,1-.09.4A3.329,3.329,0,0,1,93.3,14.4Zm4.353,0a.09.09,0,0,1-.129.041,3.329,3.329,0,0,1-1.5-1.673,2.124,2.124,0,0,1-.082-.4,4.632,4.632,0,0,0,1.827-.573,2.122,2.122,0,0,1,.159.371A3.329,3.329,0,0,1,97.65,14.4Zm3.15-2.185a.246.246,0,0,1-.19.089h0a3.158,3.158,0,0,1-1.972-.609,2.123,2.123,0,0,1-.282-.29,4.725,4.725,0,0,0,1.235-1.464,2.122,2.122,0,0,1,.333.228,3.158,3.158,0,0,1,.934,1.841A.246.246,0,0,1,100.8,12.218Zm1.66-3.536a.088.088,0,0,1-.039.063,3.329,3.329,0,0,1-2.153.646,2.123,2.123,0,0,1-.392-.094,4.66,4.66,0,0,0,.263-1.767c0-.044,0-.087-.008-.131a2.125,2.125,0,0,1,.406.015,3.329,3.329,0,0,1,1.9,1.2A.088.088,0,0,1,102.46,8.682Z" transform="translate(-87.791 0)" fill="#fff"/>
  <path id="Path_88" data-name="Path 88" d="M192.732,102.619a3.177,3.177,0,0,0-3.942-2.942.343.343,0,0,0,.166.666,2.488,2.488,0,1,1-1.881,2.522,2.479,2.479,0,0,1,.845-1.979.343.343,0,0,0-.453-.516,3.175,3.175,0,0,0,2.092,5.561q.07,0,.14,0a3.174,3.174,0,0,0,3.034-3.31Z" transform="translate(-181.874 -95.025)" fill="#fff"/>
</svg>
