<svg xmlns="http://www.w3.org/2000/svg" width="14.645" height="19.3" viewBox="0 0 14.645 19.3"><defs><style>.a{fill:#fff;stroke:#fff;stroke-width:0.3px;}</style></defs><g transform="translate(0.167 0.135)"><path class="a" d="M10.9,4.3A5.858,5.858,0,0,0,9.215,3.32V2.075a2.06,2.06,0,1,0-4.119,0V3.32a5.874,5.874,0,0,0-3.8,5.49v3.6h0a.371.371,0,0,1-.055.194L.255,14.2A1.7,1.7,0,0,0,1.7,16.79H4a2.787,2.787,0,0,0,2.726,2.225h.857A2.787,2.787,0,0,0,10.31,16.79h2.3A1.7,1.7,0,0,0,14.056,14.2l-.982-1.6a.371.371,0,0,1-.055-.194C13.258,9.505,12.87,5.954,10.9,4.3ZM6.209,2.075a.946.946,0,0,1,1.893,0v.949a5.895,5.895,0,0,0-1.893,0ZM2.405,8.81a4.748,4.748,0,0,1,7.92-3.535c1.37,1.5,1.6,2.786,1.581,5.5v1.076h-9.5ZM7.584,17.9H6.727A1.671,1.671,0,0,1,5.154,16.79h4A1.672,1.672,0,0,1,7.584,17.9Zm5.524-3.118a.585.585,0,0,1-.5.893H1.7a.585.585,0,0,1-.5-.893A18,18,0,0,0,2.3,12.965h9.717A18.006,18.006,0,0,0,13.108,14.784Z" transform="translate(0 0)"/></g></svg>