<svg xmlns="http://www.w3.org/2000/svg" width="27.517" height="27.508" viewBox="0 0 27.517 27.508"><defs><style>.a{fill:#5aa469;}</style></defs><path class="a" d="M214.566,207.659a2.353,2.353,0,0,0-.806,4.564V213.3a.806.806,0,0,0,1.612,0v-1.078a2.353,2.353,0,0,0-.806-4.564Zm0,1.612a.741.741,0,1,1-.741.741A.742.742,0,0,1,214.566,209.271Z" transform="translate(-200.808 -196.503)"/><path class="a" d="M23.428,19.416H18.065a6.56,6.56,0,0,0,.352-9.586V4.745a4.659,4.659,0,1,0-9.317,0V9.83a6.56,6.56,0,0,0,.352,9.586H4.089a4.089,4.089,0,1,0,0,8.178H23.428a4.089,4.089,0,1,0,0-8.178ZM13.759,1.7A3.05,3.05,0,0,1,16.8,4.745V8.639a6.555,6.555,0,0,0-6.093,0V4.745A3.05,3.05,0,0,1,13.759,1.7ZM8.8,14.458a4.958,4.958,0,1,1,4.958,4.958A4.963,4.963,0,0,1,8.8,14.458ZM23.428,25.982H4.089a2.477,2.477,0,1,1,0-4.953H23.428a2.477,2.477,0,1,1,0,4.953Z" transform="translate(0 -0.086)"/><ellipse class="a" cx="0.861" cy="0.861" rx="0.861" ry="0.861" transform="translate(4.371 22.56)"/><ellipse class="a" cx="0.861" cy="0.861" rx="0.861" ry="0.861" transform="translate(8.634 22.56)"/><ellipse class="a" cx="0.861" cy="0.861" rx="0.861" ry="0.861" transform="translate(12.897 22.56)"/><ellipse class="a" cx="0.861" cy="0.861" rx="0.861" ry="0.861" transform="translate(17.16 22.56)"/><ellipse class="a" cx="0.861" cy="0.861" rx="0.861" ry="0.861" transform="translate(21.423 22.56)"/></svg>