<svg xmlns="http://www.w3.org/2000/svg" width="18.424" height="23.392" viewBox="0 0 18.424 23.392">
  <g id="perawatanActive" transform="translate(0)">
    <ellipse id="Ellipse_2" data-name="Ellipse 2" cx="0.343" cy="0.343" rx="0.343" ry="0.343" transform="translate(3.746 20.937)" fill="#fff"/>
    <ellipse id="Ellipse_3" data-name="Ellipse 3" cx="0.343" cy="0.343" rx="0.343" ry="0.343" transform="translate(13.696 20.937)" fill="#fff"/>
    <path id="Path_89" data-name="Path 89" d="M61.984,3.314a3.536,3.536,0,0,0-7.058,0l-.558,8.866a.954.954,0,0,0,.952,1.014h2.109v1.783a.749.749,0,0,0-.736.748V17.93a.343.343,0,0,0,.685,0V15.724a.063.063,0,0,1,.063-.063h2.027a.063.063,0,0,1,.063.063V21.63a1.077,1.077,0,1,1-2.153,0V19.3a.343.343,0,1,0-.685,0V21.63a1.762,1.762,0,1,0,3.524,0V15.724a.749.749,0,0,0-.736-.748V13.193h2.109a.954.954,0,0,0,.952-1.014ZM58.8,14.976h-.681V11.562a6.556,6.556,0,0,1,.341-2.09,6.558,6.558,0,0,1,.341,2.09Zm2.99-2.552a.266.266,0,0,1-.2.085H59.481v-.946a7.243,7.243,0,0,0-.46-2.545.6.6,0,0,0-1.131,0,7.241,7.241,0,0,0-.46,2.545v.946H55.32a.268.268,0,0,1-.268-.285l.558-8.866a2.851,2.851,0,0,1,5.69,0l.558,8.866A.266.266,0,0,1,61.786,12.423Z" transform="translate(-54.366)" fill="#fff"/>
    <path id="Path_90" data-name="Path 90" d="M273.795,5.526a.582.582,0,0,0-.5-.295h-.007a.582.582,0,0,0-.5.283c-.641,1.057-.641,1.437-.642,1.563v4.7a.488.488,0,0,1-.976,0v-4.7s0-.005,0-.008a3.543,3.543,0,0,0-.632-1.541.582.582,0,0,0-.5-.279h0a.583.583,0,0,0-.5.287c-.637,1.069-.637,1.411-.637,1.523v4.721a.488.488,0,0,1-.976,0V7.084c.006-.133.009-.521-.642-1.553a.587.587,0,0,0-1,.013c-.631,1.06-.631,1.4-.631,1.514V9.936a.343.343,0,1,0,.685,0V7.057a3.093,3.093,0,0,1,.452-1.023,2.614,2.614,0,0,1,.451,1.025c0,.005,0,.011,0,.016v4.7a1.173,1.173,0,0,0,2.347,0V7.057a3.126,3.126,0,0,1,.457-1.03,2.9,2.9,0,0,1,.445,1.053v4.7a1.173,1.173,0,0,0,2.347,0v-4.7a2.913,2.913,0,0,1,.456-1.062,2.883,2.883,0,0,1,.447,1.043v6a2.783,2.783,0,0,1-1.664,2.548l-.918.4-.11.045a7.239,7.239,0,0,0-.443-2.042.6.6,0,0,0-.566-.392h0a.6.6,0,0,0-.566.392,7.238,7.238,0,0,0-.443,2.042c-.037-.014-.074-.029-.11-.045l-.918-.4a2.783,2.783,0,0,1-1.664-2.548V11.306a.343.343,0,1,0-.685,0v1.748a3.469,3.469,0,0,0,2.073,3.175l.918.4a3.479,3.479,0,0,0,.368.137v3.2a.749.749,0,0,0-.736.748v5.906a1.762,1.762,0,1,0,3.524,0V20.716a.749.749,0,0,0-.736-.748v-3.2a3.483,3.483,0,0,0,.368-.137l.918-.4a3.469,3.469,0,0,0,2.073-3.175v-6c0-.111,0-.45-.621-1.532Zm-3.765,8.938a6.556,6.556,0,0,1,.341,2.09v3.414h-.681V16.554A6.557,6.557,0,0,1,270.03,14.464Zm1.077,6.252v5.906a1.077,1.077,0,1,1-2.153,0V20.716a.063.063,0,0,1,.063-.063h2.027A.063.063,0,0,1,271.106,20.716Z" transform="translate(-255.991 -4.992)" fill="#fff"/>
  </g>
</svg>
