<svg xmlns="http://www.w3.org/2000/svg" width="27.84" height="23.392" viewBox="0 0 27.84 23.392">
  <g id="profil" opacity="0.5">
    <path id="Path_91" data-name="Path 91" d="M27.795,49.9a.736.736,0,0,0-.519-.463l-5.442-1.314q-.973-.235-1.959-.411v-.946A5.869,5.869,0,0,0,14.012,40.9h-.185a5.854,5.854,0,0,0-3.028.841.408.408,0,1,0,.422.7,5.038,5.038,0,0,1,2.606-.724h.185a5.053,5.053,0,0,1,5.047,5.047v.811a33.963,33.963,0,0,0-10.279,0v-.811a5.031,5.031,0,0,1,1.343-3.428.408.408,0,1,0-.6-.554,5.844,5.844,0,0,0-1.56,3.982v.946q-.985.176-1.959.411L.564,49.433a.737.737,0,0,0-.421,1.153l1.018,1.387a1.574,1.574,0,0,0,1.264.64H4.359l.07.192a19.7,19.7,0,0,0,8.252,10.071,1.25,1.25,0,1,0,2.477,0,19.7,19.7,0,0,0,8.252-10.071l.07-.192h1.933a1.574,1.574,0,0,0,1.264-.64L27.7,50.585a.736.736,0,0,0,.1-.689ZM13.92,63.475a.434.434,0,1,1,.434-.434A.435.435,0,0,1,13.92,63.475Zm12.1-11.986a.756.756,0,0,1-.607.307H17.182a.408.408,0,1,0,0,.816h5.43a18.886,18.886,0,0,1-7.822,9.532,1.247,1.247,0,0,0-1.741,0,18.886,18.886,0,0,1-7.822-9.532H15.55a.408.408,0,1,0,0-.816H2.426a.756.756,0,0,1-.607-.307L.87,50.2,6.2,48.912a33.051,33.051,0,0,1,15.445,0L26.969,50.2Z" transform="translate(0 -40.899)" fill="#fff"/>
  </g>
</svg>
