<svg xmlns="http://www.w3.org/2000/svg" width="16.14" height="18.893" viewBox="0 0 16.14 18.893"><defs><style>.a,.b{fill:#fff;}.b{stroke:#fff;stroke-width:0.8px;}</style></defs><g transform="translate(-1843.86 -21)"><g transform="translate(1843.86 21)"><path class="a" d="M52.523,0h-14.3A.924.924,0,0,0,37.3.922V17.6a1.292,1.292,0,0,0,1.807,1.184l6.19-2.693a.185.185,0,0,1,.147,0l6.19,2.693A1.292,1.292,0,0,0,53.445,17.6V.922A.924.924,0,0,0,52.523,0Zm-.184,17.6a.184.184,0,0,1-.258.169l-6.19-2.693a1.3,1.3,0,0,0-1.03,0L38.67,17.77a.184.184,0,0,1-.258-.169V1.107H52.338V17.6Z" transform="translate(-37.305 0)"/></g><path class="b" d="M21.3,9.01a.268.268,0,0,0-.292.232v6.566a.3.3,0,0,0,.585,0V9.242A.268.268,0,0,0,21.3,9.01Z" transform="translate(1826.776 15.638)"/></g></svg>